<svg width="22" height="22" viewBox="0 0 22 22" fill="none" xmlns="http://www.w3.org/2000/svg">
<path d="M4.59025 17.567C4.80553 16.957 5.20478 16.4288 5.73296 16.0552C6.26113 15.6815 6.89223 15.4809 7.53925 15.4809C8.18627 15.4809 8.81737 15.6815 9.34554 16.0552C9.87372 16.4288 10.273 16.957 10.4883 17.567H21.0859V19.6506H10.4883C10.273 20.2606 9.87372 20.7888 9.34554 21.1625C8.81737 21.5361 8.18627 21.7367 7.53925 21.7367C6.89223 21.7367 6.26113 21.5361 5.73296 21.1625C5.20478 20.7888 4.80553 20.2606 4.59025 19.6506H0.244892V17.567H4.59025ZM10.8426 10.2745C11.0578 9.66446 11.4571 9.13623 11.9853 8.7626C12.5134 8.38896 13.1445 8.18832 13.7916 8.18832C14.4386 8.18832 15.0697 8.38896 15.5978 8.7626C16.126 9.13623 16.5253 9.66446 16.7406 10.2745H21.0859V12.358H16.7406C16.5253 12.9681 16.126 13.4963 15.5978 13.8699C15.0697 14.2435 14.4386 14.4442 13.7916 14.4442C13.1445 14.4442 12.5134 14.2435 11.9853 13.8699C11.4571 13.4963 11.0578 12.9681 10.8426 12.358H0.244892V10.2745H10.8426ZM4.59025 2.98191C4.80553 2.3719 5.20478 1.84368 5.73296 1.47005C6.26113 1.09641 6.89223 0.895767 7.53925 0.895767C8.18627 0.895767 8.81737 1.09641 9.34554 1.47005C9.87372 1.84368 10.273 2.3719 10.4883 2.98191H21.0859V5.06549H10.4883C10.273 5.6755 9.87372 6.20372 9.34554 6.57735C8.81737 6.95099 8.18627 7.15163 7.53925 7.15163C6.89223 7.15163 6.26113 6.95099 5.73296 6.57735C5.20478 6.20372 4.80553 5.6755 4.59025 5.06549H0.244892V2.98191H4.59025ZM7.53925 5.06549C7.81562 5.06549 8.08067 4.95573 8.27609 4.76036C8.47151 4.56498 8.5813 4.3 8.5813 4.0237C8.5813 3.7474 8.47151 3.48241 8.27609 3.28704C8.08067 3.09167 7.81562 2.98191 7.53925 2.98191C7.26288 2.98191 6.99783 3.09167 6.80241 3.28704C6.60699 3.48241 6.4972 3.7474 6.4972 4.0237C6.4972 4.3 6.60699 4.56498 6.80241 4.76036C6.99783 4.95573 7.26288 5.06549 7.53925 5.06549ZM13.7916 12.358C14.0679 12.358 14.333 12.2483 14.5284 12.0529C14.7238 11.8575 14.8336 11.5926 14.8336 11.3163C14.8336 11.04 14.7238 10.775 14.5284 10.5796C14.333 10.3842 14.0679 10.2745 13.7916 10.2745C13.5152 10.2745 13.2501 10.3842 13.0547 10.5796C12.8593 10.775 12.7495 11.04 12.7495 11.3163C12.7495 11.5926 12.8593 11.8575 13.0547 12.0529C13.2501 12.2483 13.5152 12.358 13.7916 12.358ZM7.53925 19.6506C7.81562 19.6506 8.08067 19.5408 8.27609 19.3455C8.47151 19.1501 8.5813 18.8851 8.5813 18.6088C8.5813 18.3325 8.47151 18.0675 8.27609 17.8721C8.08067 17.6768 7.81562 17.567 7.53925 17.567C7.26288 17.567 6.99783 17.6768 6.80241 17.8721C6.60699 18.0675 6.4972 18.3325 6.4972 18.6088C6.4972 18.8851 6.60699 19.1501 6.80241 19.3455C6.99783 19.5408 7.26288 19.6506 7.53925 19.6506Z" fill="#416BFF"/>
</svg>
