<svg width="27" height="26" viewBox="0 0 27 26" fill="none" xmlns="http://www.w3.org/2000/svg">
<path d="M3.65746 10.0068C5.03627 10.0068 6.15402 8.91132 6.15402 7.56002C6.15402 6.20872 5.03627 5.11328 3.65746 5.11328C2.27865 5.11328 1.16091 6.20872 1.16091 7.56002C1.16091 8.91132 2.27865 10.0068 3.65746 10.0068Z" stroke="#416BFF" stroke-width="2.13147" stroke-miterlimit="10"/>
<path d="M19.314 6.38371C20.6928 6.38371 21.8105 5.28827 21.8105 3.93697C21.8105 2.58568 20.6928 1.49023 19.314 1.49023C17.9352 1.49023 16.8174 2.58568 16.8174 3.93697C16.8174 5.28827 17.9352 6.38371 19.314 6.38371Z" stroke="#416BFF" stroke-width="2.13147" stroke-miterlimit="10"/>
<path d="M23.4094 24.6767C24.7882 24.6767 25.906 23.5812 25.906 22.2299C25.906 20.8786 24.7882 19.7832 23.4094 19.7832C22.0306 19.7832 20.9129 20.8786 20.9129 22.2299C20.9129 23.5812 22.0306 24.6767 23.4094 24.6767Z" stroke="#416BFF" stroke-width="2.13147" stroke-miterlimit="10"/>
<path d="M13.923 21.618C16.5075 21.618 18.6027 19.5646 18.6027 17.0317C18.6027 14.4987 16.5075 12.4453 13.923 12.4453C11.3384 12.4453 9.24322 14.4987 9.24322 17.0317C9.24322 19.5646 11.3384 21.618 13.923 21.618Z" stroke="#416BFF" stroke-width="2.13147" stroke-miterlimit="10"/>
<path d="M10.4986 13.8986L5.11898 9.14844" stroke="#416BFF" stroke-width="2.13147" stroke-miterlimit="10"/>
<path d="M18.605 6.28125L15.7115 12.782" stroke="#416BFF" stroke-width="2.13147" stroke-miterlimit="10"/>
<path d="M21.1545 21.1977L17.9789 19.3242" stroke="#416BFF" stroke-width="2.13147" stroke-miterlimit="10"/>
</svg>
