<svg width="19" height="23" viewBox="0 0 19 23" fill="none" xmlns="http://www.w3.org/2000/svg">
<path d="M9.36018 15.4938C9.67185 15.4938 9.9331 15.3885 10.1439 15.1777C10.3548 14.9669 10.4602 14.7057 10.4602 14.3941C10.4602 14.0825 10.3548 13.8213 10.1439 13.6106C9.9331 13.3998 9.67185 13.2944 9.36018 13.2944C9.04852 13.2944 8.78726 13.3998 8.57643 13.6106C8.3656 13.8213 8.26018 14.0825 8.26018 14.3941C8.26018 14.7057 8.3656 14.9669 8.57643 15.1777C8.78726 15.3885 9.04852 15.4938 9.36018 15.4938ZM8.26018 11.0949H10.4602V5.59629H8.26018V11.0949ZM9.36018 22.0922C6.81185 21.4507 4.7081 19.989 3.04893 17.707C1.38976 15.4251 0.560181 12.8912 0.560181 10.1052V3.39684L9.36018 0.0976562L18.1602 3.39684V10.1052C18.1602 12.8912 17.3306 15.4251 15.6714 17.707C14.0123 19.989 11.9085 21.4507 9.36018 22.0922ZM9.36018 19.7828C11.2668 19.1779 12.8435 17.9682 14.0902 16.1537C15.3368 14.3391 15.9602 12.323 15.9602 10.1052V4.90896L9.36018 2.43458L2.76018 4.90896V10.1052C2.76018 12.323 3.38351 14.3391 4.63018 16.1537C5.87685 17.9682 7.45351 19.1779 9.36018 19.7828Z" fill="#416BFF"/>
</svg>
