<svg width="21" height="22" viewBox="0 0 21 22" fill="none" xmlns="http://www.w3.org/2000/svg">
<path d="M1.64134 16.5089C1.20083 15.7473 0.858408 14.9331 0.622211 14.0857C1.13626 13.8243 1.56797 13.4258 1.86958 12.9344C2.17118 12.443 2.33093 11.8777 2.33115 11.3011C2.33136 10.7245 2.17204 10.1591 1.8708 9.66745C1.56956 9.17578 1.13815 8.777 0.624296 8.51523C1.09534 6.8124 1.99223 5.25749 3.23047 3.99697C3.71407 4.3113 4.27525 4.48574 4.85187 4.50097C5.4285 4.5162 5.9981 4.37163 6.49764 4.08326C6.99718 3.7949 7.40717 3.37398 7.68224 2.86708C7.95731 2.36019 8.08674 1.78709 8.0562 1.21121C9.76737 0.7691 11.5629 0.769818 13.2738 1.2133C13.2435 1.78916 13.3732 2.36218 13.6485 2.86892C13.9237 3.37567 14.3339 3.7964 14.8335 4.08454C15.3332 4.37269 15.9028 4.51702 16.4794 4.50156C17.056 4.48611 17.6171 4.31147 18.1005 3.99697C18.7039 4.61163 19.2395 5.31067 19.6897 6.09097C20.1409 6.87128 20.4785 7.68492 20.7088 8.51419C20.1947 8.77557 19.763 9.17403 19.4614 9.66548C19.1598 10.1569 19.0001 10.7222 18.9999 11.2988C18.9996 11.8754 19.159 12.4408 19.4602 12.9324C19.7614 13.4241 20.1928 13.8229 20.7067 14.0847C20.2357 15.7875 19.3388 17.3424 18.1005 18.6029C17.6169 18.2886 17.0558 18.1141 16.4791 18.0989C15.9025 18.0837 15.3329 18.2282 14.8334 18.5166C14.3338 18.805 13.9238 19.2259 13.6488 19.7328C13.3737 20.2397 13.2443 20.8128 13.2748 21.3887C11.5636 21.8308 9.76805 21.8301 8.05725 21.3866C8.08751 20.8107 7.95783 20.2377 7.68255 19.731C7.40726 19.2242 6.99711 18.8035 6.49747 18.5153C5.99784 18.2272 5.42821 18.0829 4.85161 18.0983C4.27502 18.1138 3.71394 18.2884 3.23047 18.6029C2.6146 17.9747 2.08066 17.2711 1.64134 16.5089ZM7.53935 16.7131C8.64978 17.3534 9.4847 18.381 9.88396 19.5989C10.4039 19.6478 10.926 19.6489 11.446 19.5999C11.8455 18.3819 12.6808 17.3543 13.7917 16.7141C14.9017 16.0721 16.2098 15.8625 17.4649 16.1255C17.7671 15.7005 18.0276 15.2473 18.2443 14.7733C17.3893 13.8184 16.9169 12.5816 16.9178 11.2999C16.9178 9.98728 17.4076 8.76109 18.2443 7.8266C18.0261 7.35274 17.7644 6.90006 17.4628 6.47435C16.2085 6.73721 14.9012 6.52798 13.7917 5.88678C12.6812 5.24647 11.8463 4.21885 11.447 3.00101C10.9271 2.95205 10.405 2.95101 9.885 2.99997C9.48548 4.21798 8.65018 5.24562 7.53935 5.88574C6.42934 6.52781 5.12124 6.73743 3.86612 6.47435C3.56451 6.8997 3.30355 7.35244 3.08666 7.8266C3.94174 8.78147 4.41411 10.0183 4.41319 11.2999C4.41319 12.6126 3.92343 13.8388 3.08666 14.7733C3.30494 15.2471 3.56657 15.6998 3.8682 16.1255C5.12254 15.8627 6.42978 16.0719 7.53935 16.7131ZM10.6655 14.4253C9.83639 14.4253 9.04124 14.096 8.45498 13.5099C7.86871 12.9238 7.53935 12.1288 7.53935 11.2999C7.53935 10.471 7.86871 9.67609 8.45498 9.08996C9.04124 8.50384 9.83639 8.17456 10.6655 8.17456C11.4946 8.17456 12.2898 8.50384 12.876 9.08996C13.4623 9.67609 13.7917 10.471 13.7917 11.2999C13.7917 12.1288 13.4623 12.9238 12.876 13.5099C12.2898 14.096 11.4946 14.4253 10.6655 14.4253ZM10.6655 12.3417C10.9419 12.3417 11.2069 12.232 11.4023 12.0366C11.5978 11.8412 11.7076 11.5762 11.7076 11.2999C11.7076 11.0236 11.5978 10.7587 11.4023 10.5633C11.2069 10.3679 10.9419 10.2581 10.6655 10.2581C10.3891 10.2581 10.1241 10.3679 9.92866 10.5633C9.73324 10.7587 9.62345 11.0236 9.62345 11.2999C9.62345 11.5762 9.73324 11.8412 9.92866 12.0366C10.1241 12.232 10.3891 12.3417 10.6655 12.3417Z" fill="#416BFF"/>
</svg>
