<svg width="22" height="20" viewBox="0 0 22 20" fill="none" xmlns="http://www.w3.org/2000/svg">
<mask id="mask0_0_8911" style="mask-type:luminance" maskUnits="userSpaceOnUse" x="0" y="0" width="22" height="20">
<path d="M16.8314 7.13477H4.7241C4.20973 7.13477 3.79276 7.5356 3.79276 8.03006V16.983C3.79276 17.4774 4.20973 17.8782 4.7241 17.8782H16.8314C17.3458 17.8782 17.7627 17.4774 17.7627 16.983V8.03006C17.7627 7.5356 17.3458 7.13477 16.8314 7.13477Z" fill="white" stroke="white" stroke-width="2.84196"/>
<path d="M7.51898 11.6109C8.03334 11.6109 8.45031 11.2101 8.45031 10.7156C8.45031 10.2211 8.03334 9.82031 7.51898 9.82031C7.00462 9.82031 6.58765 10.2211 6.58765 10.7156C6.58765 11.2101 7.00462 11.6109 7.51898 11.6109Z" fill="black"/>
<path d="M14.0353 11.6109C14.5496 11.6109 14.9666 11.2101 14.9666 10.7156C14.9666 10.2211 14.5496 9.82031 14.0353 9.82031C13.5209 9.82031 13.1039 10.2211 13.1039 10.7156C13.1039 11.2101 13.5209 11.6109 14.0353 11.6109Z" fill="black"/>
<path d="M8.91642 13.4023C8.66942 13.4023 8.43253 13.4967 8.25787 13.6646C8.08321 13.8325 7.98509 14.0602 7.98509 14.2976C7.98509 14.5351 8.08321 14.7628 8.25787 14.9307C8.43253 15.0986 8.66942 15.1929 8.91642 15.1929V13.4023ZM12.6418 15.1929C12.8888 15.1929 13.1256 15.0986 13.3003 14.9307C13.475 14.7628 13.5731 14.5351 13.5731 14.2976C13.5731 14.0602 13.475 13.8325 13.3003 13.6646C13.1256 13.4967 12.8888 13.4023 12.6418 13.4023V15.1929ZM8.91642 15.1929H12.6418V13.4023H8.91642V15.1929Z" fill="black"/>
<path d="M10.7773 3.55469V7.13585M1.46401 10.717V14.2982M20.0907 10.717V14.2982" stroke="white" stroke-width="2.84196" stroke-linecap="round" stroke-linejoin="round"/>
<path d="M10.7781 3.55425C11.2924 3.55425 11.7094 3.15342 11.7094 2.65896C11.7094 2.16451 11.2924 1.76367 10.7781 1.76367C10.2637 1.76367 9.84675 2.16451 9.84675 2.65896C9.84675 3.15342 10.2637 3.55425 10.7781 3.55425Z" stroke="white" stroke-width="2.84196"/>
</mask>
<g mask="url(#mask0_0_8911)">
<path d="M-0.403004 -0.919922H21.949V20.567H-0.403004V-0.919922Z" fill="#B8B4CC"/>
</g>
</svg>
