<svg width="31" height="30" viewBox="0 0 31 30" fill="none" xmlns="http://www.w3.org/2000/svg">
<path d="M17.5129 12.7901L17.7716 14.4331L17.2866 16.3273L18.3516 15.7472L18.1082 13.6725L17.5129 12.7901Z" fill="#236092"/>
<path d="M12.7396 21.5741L11.7545 22.1028L10.0905 22.2264L11.8001 22.4641L12.7396 21.5741Z" fill="#236092"/>
<path d="M13.4033 17.8774L14.4949 16.9398L14.415 16.1849L13.4033 17.8774Z" fill="#236092"/>
<path d="M19.118 18.5352L19.1713 17.2364L18.9183 17.7441L19.118 18.5352Z" fill="#236092"/>
<path d="M12.7396 21.5741L11.7545 22.1028L10.0905 22.2264L11.8001 22.4641L12.7396 21.5741Z" fill="#236092"/>
<path d="M8.23447 24.7367L9.16441 23.8771L10.0906 22.2264L8.63383 21.9221L10.9273 19.9272L11.3723 19.0315L12.1235 18.0198L12.8842 16.5992L13.6107 15.7814L14.862 15.2775L16.5469 11.9152L17.61 12.5713L18.3041 13.4024L18.7016 15.5152L19.5003 14.5929L19.9796 14.8078L20.0804 15.3821L19.7609 17.2496L19.177 18.7767L19.6563 21.266L19.2607 21.1786L19.6563 22.485L19.3596 22.4584L19.8617 24.073L19.3501 23.8828L19.9815 25.3605L20.107 25.7826H28.5259L15.4972 4.2037L2.47412 25.7826H7.57647L8.59579 24.7063L8.23447 24.7367Z" fill="#236092"/>
<path d="M19.9814 25.3607L19.35 23.8831L19.8616 24.0732L19.3595 22.4587L19.6562 22.4853L19.2607 21.1788L19.6562 21.2663L19.177 18.7769L19.7608 17.2498L20.0803 15.3823L19.9795 14.8099L19.5003 14.595L18.7015 15.5174L18.3041 13.4045L17.6099 12.5735L16.5469 11.9174L14.8639 15.2796L13.6106 15.7817L12.8841 16.5994L12.1254 18.0219L11.3742 19.0318L10.9292 19.9275L8.63568 21.9243L10.0924 22.2286L11.7564 22.1068L12.7415 21.5782L11.8021 22.4682L10.0924 22.2286L9.16626 23.8793L8.23632 24.7388L8.59765 24.7084L7.57642 25.7848H20.1088L19.9814 25.3626V25.3607ZM13.4033 17.8774L14.4131 16.1849L14.493 16.9379L13.4033 17.8774ZM17.2867 16.3275L17.7716 14.4334L17.513 12.7903L18.1082 13.6727L18.3516 15.7475L17.2867 16.3275ZM19.118 18.5354L18.9183 17.7443L19.1713 17.2365L19.118 18.5354Z" fill="white"/>
</svg>
