<svg width="15" height="15" viewBox="0 0 15 15" fill="none" xmlns="http://www.w3.org/2000/svg">
<g clip-path="url(#clip0_0_9254)">
<path d="M13.75 7.58984C13.75 11.0416 10.9518 13.8398 7.5 13.8398M13.75 7.58984C13.75 4.13806 10.9518 1.33984 7.5 1.33984M13.75 7.58984H1.25M7.5 13.8398C4.04822 13.8398 1.25 11.0416 1.25 7.58984M7.5 13.8398C5.89515 12.1547 5 9.91688 5 7.58984C5 5.26281 5.89515 3.02494 7.5 1.33984M7.5 13.8398C9.10485 12.1547 10 9.91688 10 7.58984C10 5.26281 9.10485 3.02494 7.5 1.33984M1.25 7.58984C1.25 4.13806 4.04822 1.33984 7.5 1.33984" stroke="#F9D33D" stroke-width="0.9375" stroke-linecap="round" stroke-linejoin="round"/>
<path d="M13.75 7.58984C13.75 11.0416 10.9518 13.8398 7.5 13.8398M13.75 7.58984C13.75 4.13806 10.9518 1.33984 7.5 1.33984M13.75 7.58984H1.25M7.5 13.8398C4.04822 13.8398 1.25 11.0416 1.25 7.58984M7.5 13.8398C5.89515 12.1547 5 9.91688 5 7.58984C5 5.26281 5.89515 3.02494 7.5 1.33984M7.5 13.8398C9.10485 12.1547 10 9.91688 10 7.58984C10 5.26281 9.10485 3.02494 7.5 1.33984M1.25 7.58984C1.25 4.13806 4.04822 1.33984 7.5 1.33984" stroke="#FDDA3E" stroke-width="0.9375" stroke-linecap="round" stroke-linejoin="round"/>
</g>
<defs>
<clipPath id="clip0_0_9254">
<rect width="15" height="15" fill="white" transform="translate(0 -0.00585938)"/>
</clipPath>
</defs>
</svg>
