<svg width="35" height="41" viewBox="0 0 35 41" fill="none" xmlns="http://www.w3.org/2000/svg">
<path d="M14.5492 37.3916C11.4106 37.3659 8.17631 35.7302 5.79774 33.8731C0.757739 29.9388 0.0991671 23.0088 4.14345 17.8259C4.33774 17.5773 4.53917 17.3359 4.7506 17.1016C5.68488 16.0616 6.12631 14.6773 5.9306 13.2931C5.92631 13.2631 5.92345 13.2331 5.91774 13.2031C5.71631 11.9302 4.56631 11.8988 3.94631 12.6545C3.85774 12.7616 3.7706 12.8702 3.68488 12.9816C-2.12369 20.4231 -0.799405 31.1631 6.6406 36.9716C8.66345 38.5502 10.9135 39.6816 13.2763 40.1473C16.4849 40.7802 18.1049 39.5888 18.1392 38.8031C18.1706 38.0802 17.2363 37.4131 14.5492 37.3902V37.3916Z" fill="url(#paint0_linear_0_8921)"/>
<path d="M34.251 23.5047C34.2382 20.3962 31.2924 18.8862 30.1325 22.1162C28.971 25.3476 25.591 31.4762 19.5567 31.379C13.5239 31.2833 10.3782 27.7647 13.2539 26.8247C16.131 25.8847 23.7296 24.0476 27.731 21.1333C31.731 18.219 32.6496 14.7676 28.9325 11.1047C28.5424 10.7205 28.1153 10.3662 27.6753 10.0219C25.9125 8.64617 23.9653 7.67189 21.9424 7.08474C20.0867 6.54617 17.8696 6.8976 17.0196 9.17189C16.5396 10.4562 17.3682 11.8619 18.7282 12.0433C19.6239 12.1633 20.511 12.3633 21.3767 12.6505C22.0839 12.8847 22.7739 13.1805 23.4467 13.5262C26.6624 15.1805 29.6324 19.2433 23.3553 21.7876C17.0796 24.3319 10.7153 24.0976 6.61388 25.209C2.51245 26.3205 3.79959 32.399 10.9639 34.6133C18.141 36.8319 21.771 34.0219 23.8739 35.5847C25.0653 36.4705 23.5182 38.1147 21.7496 39.2147C21.591 39.3133 21.431 39.4062 21.2696 39.4933C20.9667 39.6576 21.1453 40.119 21.4782 40.0319C24.9853 39.119 28.2296 37.0876 30.6325 34.0105C33.071 30.8862 34.2682 27.1805 34.2524 23.5019L34.251 23.5047Z" fill="url(#paint1_linear_0_8921)"/>
<path d="M14.8656 19.3484C16.068 19.3484 17.0428 18.3737 17.0428 17.1713C17.0428 15.9689 16.068 14.9941 14.8656 14.9941C13.6632 14.9941 12.6885 15.9689 12.6885 17.1713C12.6885 18.3737 13.6632 19.3484 14.8656 19.3484Z" fill="url(#paint2_linear_0_8921)"/>
<path d="M14.8656 4.38749C16.068 4.38749 17.0428 3.41275 17.0428 2.21035C17.0428 1.00794 16.068 0.0332031 14.8656 0.0332031C13.6632 0.0332031 12.6885 1.00794 12.6885 2.21035C12.6885 3.41275 13.6632 4.38749 14.8656 4.38749Z" fill="url(#paint3_linear_0_8921)"/>
<path d="M10.9237 13.2731C12.9024 13.2731 14.5065 11.669 14.5065 9.69028C14.5065 7.71152 12.9024 6.10742 10.9237 6.10742C8.94492 6.10742 7.34082 7.71152 7.34082 9.69028C7.34082 11.669 8.94492 13.2731 10.9237 13.2731Z" fill="url(#paint4_linear_0_8921)"/>
<defs>
<linearGradient id="paint0_linear_0_8921" x1="9.10345" y1="39.9816" x2="9.10345" y2="2.74877" gradientUnits="userSpaceOnUse">
<stop stop-color="#305AF5"/>
<stop offset="0.16" stop-color="#4769F5"/>
<stop offset="0.35" stop-color="#5C77F5"/>
<stop offset="0.47" stop-color="#647CF6"/>
<stop offset="0.6" stop-color="#6F97F7"/>
<stop offset="0.99" stop-color="#90E6FB"/>
</linearGradient>
<linearGradient id="paint1_linear_0_8921" x1="19.2753" y1="39.9805" x2="19.2753" y2="2.7476" gradientUnits="userSpaceOnUse">
<stop stop-color="#305AF5"/>
<stop offset="0.16" stop-color="#4769F5"/>
<stop offset="0.35" stop-color="#5C77F5"/>
<stop offset="0.47" stop-color="#647CF6"/>
<stop offset="0.6" stop-color="#6F97F7"/>
<stop offset="0.99" stop-color="#90E6FB"/>
</linearGradient>
<linearGradient id="paint2_linear_0_8921" x1="14.8656" y1="39.9827" x2="14.8656" y2="2.74986" gradientUnits="userSpaceOnUse">
<stop stop-color="#305AF5"/>
<stop offset="0.16" stop-color="#4769F5"/>
<stop offset="0.35" stop-color="#5C77F5"/>
<stop offset="0.47" stop-color="#647CF6"/>
<stop offset="0.6" stop-color="#6F97F7"/>
<stop offset="0.99" stop-color="#90E6FB"/>
</linearGradient>
<linearGradient id="paint3_linear_0_8921" x1="14.8656" y1="39.9818" x2="14.8656" y2="2.74892" gradientUnits="userSpaceOnUse">
<stop stop-color="#305AF5"/>
<stop offset="0.16" stop-color="#4769F5"/>
<stop offset="0.35" stop-color="#5C77F5"/>
<stop offset="0.47" stop-color="#647CF6"/>
<stop offset="0.6" stop-color="#6F97F7"/>
<stop offset="0.99" stop-color="#90E6FB"/>
</linearGradient>
<linearGradient id="paint4_linear_0_8921" x1="10.9237" y1="39.9817" x2="10.9237" y2="2.74885" gradientUnits="userSpaceOnUse">
<stop stop-color="#305AF5"/>
<stop offset="0.16" stop-color="#4769F5"/>
<stop offset="0.35" stop-color="#5C77F5"/>
<stop offset="0.47" stop-color="#647CF6"/>
<stop offset="0.6" stop-color="#6F97F7"/>
<stop offset="0.99" stop-color="#90E6FB"/>
</linearGradient>
</defs>
</svg>
