<svg width="31" height="30" viewBox="0 0 31 30" fill="none" xmlns="http://www.w3.org/2000/svg">
<g clip-path="url(#clip0_0_9025)">
<path d="M16.4367 2.80891C16.3428 2.80675 16.3124 2.82286 16.2998 2.85729V13.7588L26.9277 13.7199C27.0326 13.5908 27.0617 12.6139 27.0492 9.26122L27.0365 5.8394L26.7642 5.83086C23.585 5.72327 21.8525 5.26743 19.9274 4.02794C19.2857 3.61477 19.1559 3.54572 18.682 3.34775C18.1367 3.12395 17.5455 2.96047 16.9542 2.87009C16.6878 2.83136 16.5305 2.81106 16.4367 2.80891ZM14.6849 2.81839C14.6052 2.81839 14.3413 2.8484 14.0981 2.89144C13.0034 3.08081 12.2316 3.39064 11.2879 4.01038C10.2981 4.66026 9.64363 4.9746 8.62446 5.28017C7.63884 5.57713 5.9824 5.79643 4.51446 5.83086L4.09493 5.8394L4.08649 9.28257C4.0781 11.7529 4.09046 12.8722 4.12821 13.2423L4.17883 13.7588H14.8316V2.82693L14.6849 2.81839ZM26.6381 15.2003C26.6381 15.3036 16.3082 15.2307 16.3082 15.2307L16.3373 27.337C16.3918 27.337 16.5554 27.2469 17.0545 26.95C17.1467 26.894 17.6335 26.5709 18.1368 26.2309C19.8564 25.0645 21.0893 24.0363 22.3392 22.7279C23.7861 21.2087 24.7511 19.8785 25.5815 18.2559C26.1183 17.2015 26.6381 15.7556 26.6381 15.3037V15.2003ZM14.8316 15.2221L4.51446 15.2435C4.48091 15.3037 4.55645 15.6997 4.68227 16.1172C5.11846 17.5417 5.96533 19.1944 6.93837 20.5157C8.04981 22.0177 9.56389 23.5625 11.3296 25C12.4453 25.9038 14.5213 27.2938 14.7604 27.2938L14.8316 15.2221Z" fill="#5694FF"/>
</g>
<defs>
<clipPath id="clip0_0_9025">
<rect width="24" height="25.5" fill="white" transform="translate(3.5 2.24414)"/>
</clipPath>
</defs>
</svg>
