<svg width="16" height="15" viewBox="0 0 16 15" fill="none" xmlns="http://www.w3.org/2000/svg">
<mask id="mask0_0_9203" style="mask-type:alpha" maskUnits="userSpaceOnUse" x="0" y="-1" width="16" height="16">
<rect x="0.5" y="-0.00585938" width="15" height="15" fill="#D9D9D9"/>
</mask>
<g mask="url(#mask0_0_9203)">
<path d="M1.75 13.1191C1.40625 13.1191 1.11198 12.9967 0.867188 12.752C0.622396 12.5072 0.5 12.2129 0.5 11.8691V3.11914C0.5 2.77539 0.622396 2.48112 0.867188 2.23633C1.11198 1.99154 1.40625 1.86914 1.75 1.86914H14.25C14.5938 1.86914 14.888 1.99154 15.1328 2.23633C15.3776 2.48112 15.5 2.77539 15.5 3.11914V11.8691C15.5 12.2129 15.3776 12.5072 15.1328 12.752C14.888 12.9967 14.5938 13.1191 14.25 13.1191H1.75ZM10.4375 11.8691H14.25V3.11914H1.75V11.8691H1.8125C2.25 11.0879 2.85417 10.4759 3.625 10.0332C4.39583 9.59049 5.22917 9.36914 6.125 9.36914C7.02083 9.36914 7.85417 9.59049 8.625 10.0332C9.39583 10.4759 10 11.0879 10.4375 11.8691ZM6.125 8.74414C6.64583 8.74414 7.08854 8.56185 7.45312 8.19727C7.81771 7.83268 8 7.38997 8 6.86914C8 6.34831 7.81771 5.9056 7.45312 5.54102C7.08854 5.17643 6.64583 4.99414 6.125 4.99414C5.60417 4.99414 5.16146 5.17643 4.79688 5.54102C4.43229 5.9056 4.25 6.34831 4.25 6.86914C4.25 7.38997 4.43229 7.83268 4.79688 8.19727C5.16146 8.56185 5.60417 8.74414 6.125 8.74414ZM12.375 11.2441L13.625 9.99414L12.6875 8.74414H11.6562C11.5938 8.55664 11.5417 8.35612 11.5 8.14258C11.4583 7.92904 11.4375 7.71289 11.4375 7.49414C11.4375 7.27539 11.4583 7.06445 11.5 6.86133C11.5417 6.6582 11.5938 6.45247 11.6562 6.24414H12.6875L13.625 4.99414L12.375 3.74414C11.8125 4.18164 11.3594 4.73633 11.0156 5.4082C10.6719 6.08008 10.5 6.77539 10.5 7.49414C10.5 8.21289 10.6719 8.9082 11.0156 9.58008C11.3594 10.252 11.8125 10.8066 12.375 11.2441ZM3.34375 11.8691H8.90625C8.55208 11.4733 8.13281 11.166 7.64844 10.9473C7.16406 10.7285 6.65625 10.6191 6.125 10.6191C5.59375 10.6191 5.08854 10.7285 4.60938 10.9473C4.13021 11.166 3.70833 11.4733 3.34375 11.8691ZM6.125 7.49414C5.94792 7.49414 5.79948 7.43425 5.67969 7.31445C5.5599 7.19466 5.5 7.04622 5.5 6.86914C5.5 6.69206 5.5599 6.54362 5.67969 6.42383C5.79948 6.30404 5.94792 6.24414 6.125 6.24414C6.30208 6.24414 6.45052 6.30404 6.57031 6.42383C6.6901 6.54362 6.75 6.69206 6.75 6.86914C6.75 7.04622 6.6901 7.19466 6.57031 7.31445C6.45052 7.43425 6.30208 7.49414 6.125 7.49414Z" fill="#416BFF"/>
<path d="M1.75 13.1191C1.40625 13.1191 1.11198 12.9967 0.867188 12.752C0.622396 12.5072 0.5 12.2129 0.5 11.8691V3.11914C0.5 2.77539 0.622396 2.48112 0.867188 2.23633C1.11198 1.99154 1.40625 1.86914 1.75 1.86914H14.25C14.5938 1.86914 14.888 1.99154 15.1328 2.23633C15.3776 2.48112 15.5 2.77539 15.5 3.11914V11.8691C15.5 12.2129 15.3776 12.5072 15.1328 12.752C14.888 12.9967 14.5938 13.1191 14.25 13.1191H1.75ZM10.4375 11.8691H14.25V3.11914H1.75V11.8691H1.8125C2.25 11.0879 2.85417 10.4759 3.625 10.0332C4.39583 9.59049 5.22917 9.36914 6.125 9.36914C7.02083 9.36914 7.85417 9.59049 8.625 10.0332C9.39583 10.4759 10 11.0879 10.4375 11.8691ZM6.125 8.74414C6.64583 8.74414 7.08854 8.56185 7.45312 8.19727C7.81771 7.83268 8 7.38997 8 6.86914C8 6.34831 7.81771 5.9056 7.45312 5.54102C7.08854 5.17643 6.64583 4.99414 6.125 4.99414C5.60417 4.99414 5.16146 5.17643 4.79688 5.54102C4.43229 5.9056 4.25 6.34831 4.25 6.86914C4.25 7.38997 4.43229 7.83268 4.79688 8.19727C5.16146 8.56185 5.60417 8.74414 6.125 8.74414ZM12.375 11.2441L13.625 9.99414L12.6875 8.74414H11.6562C11.5938 8.55664 11.5417 8.35612 11.5 8.14258C11.4583 7.92904 11.4375 7.71289 11.4375 7.49414C11.4375 7.27539 11.4583 7.06445 11.5 6.86133C11.5417 6.6582 11.5938 6.45247 11.6562 6.24414H12.6875L13.625 4.99414L12.375 3.74414C11.8125 4.18164 11.3594 4.73633 11.0156 5.4082C10.6719 6.08008 10.5 6.77539 10.5 7.49414C10.5 8.21289 10.6719 8.9082 11.0156 9.58008C11.3594 10.252 11.8125 10.8066 12.375 11.2441ZM3.34375 11.8691H8.90625C8.55208 11.4733 8.13281 11.166 7.64844 10.9473C7.16406 10.7285 6.65625 10.6191 6.125 10.6191C5.59375 10.6191 5.08854 10.7285 4.60938 10.9473C4.13021 11.166 3.70833 11.4733 3.34375 11.8691ZM6.125 7.49414C5.94792 7.49414 5.79948 7.43425 5.67969 7.31445C5.5599 7.19466 5.5 7.04622 5.5 6.86914C5.5 6.69206 5.5599 6.54362 5.67969 6.42383C5.79948 6.30404 5.94792 6.24414 6.125 6.24414C6.30208 6.24414 6.45052 6.30404 6.57031 6.42383C6.6901 6.54362 6.75 6.69206 6.75 6.86914C6.75 7.04622 6.6901 7.19466 6.57031 7.31445C6.45052 7.43425 6.30208 7.49414 6.125 7.49414Z" fill="#0B60EB"/>
</g>
</svg>
