<svg width="15" height="15" viewBox="0 0 15 15" fill="none" xmlns="http://www.w3.org/2000/svg">
<g clip-path="url(#clip0_0_9267)">
<path d="M9.80375 9.46484C9.4562 11.1085 8.65859 12.6232 7.5 13.8398C5.89515 12.1547 5 9.91688 5 7.58984C5 5.26281 5.89515 3.02494 7.5 1.33984C6.34492 1.34015 5.21251 1.66054 4.2285 2.26546C3.24448 2.87038 2.44735 3.73615 1.92559 4.76668C1.40383 5.79721 1.17786 6.95217 1.27276 8.10334C1.36766 9.25452 1.77972 10.3569 2.4632 11.2881C3.14668 12.2192 4.07483 12.9428 5.14463 13.3784C6.21443 13.814 7.38401 13.9446 8.52355 13.7557C9.66309 13.5669 10.728 13.0659 11.6001 12.3085C12.4721 11.551 13.1172 10.5667 13.4637 9.46484M1.25 7.58984H6.5625M12.5 3.83984V2.58984C12.5 2.25832 12.3683 1.94038 12.1339 1.70596C11.8995 1.47154 11.5815 1.33984 11.25 1.33984C10.9185 1.33984 10.6005 1.47154 10.3661 1.70596C10.1317 1.94038 10 2.25832 10 2.58984V3.83984M9.375 3.83984H13.125C13.4702 3.83984 13.75 4.11967 13.75 4.46484V6.33984C13.75 6.68502 13.4702 6.96484 13.125 6.96484H9.375C9.02982 6.96484 8.75 6.68502 8.75 6.33984V4.46484C8.75 4.11967 9.02982 3.83984 9.375 3.83984Z" stroke="#9A9AAF" stroke-width="0.9375" stroke-linecap="round" stroke-linejoin="round"/>
</g>
<defs>
<clipPath id="clip0_0_9267">
<rect width="15" height="15" fill="white" transform="translate(0 -0.00585938)"/>
</clipPath>
</defs>
</svg>
